# xmcd CD database file
#
# Track frame offsets:
#	150
#	20397
#	42795
#	63445
#	84227
#	125822
#	149090
#	165687
#
# Disc length: 2847 seconds
#
# Revision: 0
# Processed by: cddbd v1.5.2PL0 Copyright (c) Steve Scherf et al.
# Submitted via: CDex 1.70beta3
#
DISCID=6b0b1d08
DTITLE=Havatampa - Havatampa
DYEAR=1998
DGENRE=Jazz
TTITLE0=Mambo Inn
TTITLE1=Concierto Para Una Voz
TTITLE2=Versos De Guardia
TTITLE3=Todos Los Ojos Te Miran
TTITLE4=Naima
TTITLE5=Lo Profundo De Tu Boca
TTITLE6=Cuando Dices Mi Amor
TTITLE7=Caravan
EXTD=YEAR: 1998
EXTT0=
EXTT1=
EXTT2=
EXTT3=
EXTT4=
EXTT5=
EXTT6=
EXTT7=
PLAYORDER=
